<svg height="512" viewBox="0 0 128 128" width="512" xmlns="http://www.w3.org/2000/svg"><path d="m119.5 66.006a53.782 53.782 0 0 0 -46.721-53.055l.177-.141a4 4 0 0 0 -5-6.247l-8.127 6.5a3.972 3.972 0 0 0 -1.429 2.512 51.084 51.084 0 0 0 -43.276 47.055 3.5 3.5 0 0 0 -2.624 3.376 53.632 53.632 0 0 0 47.389 53.138l-.059.046a4 4 0 1 0 5 6.246l8.128-6.5a3.979 3.979 0 0 0 1.442-2.636 51.082 51.082 0 0 0 42.472-46.92 3.5 3.5 0 0 0 2.628-3.374z" fill="#e6e7e8"/><circle cx="62" cy="62.006" fill="#d4fbff" r="50"/><path d="m32.031 64.456 3.744 27.7a4.24 4.24 0 0 0 4.2 3.673h44.047a4.24 4.24 0 0 0 4.2-3.673l3.744-27.7z" fill="#ffd7e5"/><path d="m85.022 92.829h-46.044a4.234 4.234 0 0 1 -3.331-1.621l.128.948a4.24 4.24 0 0 0 4.2 3.673h44.047a4.24 4.24 0 0 0 4.2-3.673l.128-.948a4.234 4.234 0 0 1 -3.328 1.621z" fill="#fff"/><path d="m94.81 56h-65.62a4.228 4.228 0 0 0 0 8.455h65.62a4.228 4.228 0 0 0 0-8.455z" fill="#fa759e"/><path d="m86.15 36.828a4.227 4.227 0 0 0 -5.978 0l-20.412 20.412a4.227 4.227 0 0 0 5.979 5.978l20.411-20.411a4.228 4.228 0 0 0 0-5.979z" fill="#6dc9f7"/><circle cx="51.815" cy="37.006" fill="#ffd7e5" r="13.889" transform="matrix(.707 -.707 .707 .707 -10.991 47.477)"/><circle cx="51.815" cy="37.006" fill="#fa759e" r="11.111" transform="matrix(.707 -.707 .707 .707 -10.991 47.477)"/><path d="m55.9 42.58a5.025 5.025 0 0 1 -2.888 1.333v1.217a1 1 0 0 1 -.271.725 1.053 1.053 0 0 1 -1.43 0 1 1 0 0 1 -.27-.725v-1.178a8.761 8.761 0 0 1 -2.145-.464 6.159 6.159 0 0 1 -1.8-.966.975.975 0 0 1 -.347-.386 1.251 1.251 0 0 1 -.1-.522 1.127 1.127 0 0 1 .251-.714.694.694 0 0 1 .551-.309.935.935 0 0 1 .358.067 4.071 4.071 0 0 1 .434.223 7.161 7.161 0 0 0 1.749.85 5.993 5.993 0 0 0 1.808.269 3.409 3.409 0 0 0 2-.5 1.67 1.67 0 0 0 .7-1.449 1.162 1.162 0 0 0 -.386-.908 2.814 2.814 0 0 0 -.966-.551q-.579-.2-1.623-.473a17.632 17.632 0 0 1 -2.357-.744 4.085 4.085 0 0 1 -1.565-1.15 3.113 3.113 0 0 1 -.657-2.086 3.6 3.6 0 0 1 1.12-2.667 5.144 5.144 0 0 1 2.934-1.372v-1.219a1 1 0 0 1 .271-.725 1.053 1.053 0 0 1 1.43 0 1 1 0 0 1 .27.725v1.2a6.488 6.488 0 0 1 3.362 1.41 1.085 1.085 0 0 1 .464.909 1.125 1.125 0 0 1 -.242.714.706.706 0 0 1 -.57.309 1.021 1.021 0 0 1 -.338-.057 2.3 2.3 0 0 1 -.434-.232 7.376 7.376 0 0 0 -1.5-.841 4.532 4.532 0 0 0 -1.671-.28 3.134 3.134 0 0 0 -1.913.531 1.719 1.719 0 0 0 -.71 1.456 1.378 1.378 0 0 0 .406 1.034 2.674 2.674 0 0 0 1.024.608q.618.213 1.681.484a16.735 16.735 0 0 1 2.3.714 3.935 3.935 0 0 1 1.517 1.111 3.037 3.037 0 0 1 .628 2.02 3.529 3.529 0 0 1 -1.075 2.609z" fill="#fff"/><path d="m66.251 9.693 2.08-1.664a3 3 0 1 0 -3.748-4.685l-8.128 6.5a3 3 0 0 0 -.13 4.575l7.8 7a3 3 0 0 0 4.008-4.466l-2.562-2.3a47.553 47.553 0 0 1 43.929 47.353 2.5 2.5 0 0 0 5 0 52.56 52.56 0 0 0 -48.249-52.313z" fill="#0089ef"/><path d="m68.461 109.577-7.8-7a3 3 0 0 0 -4.008 4.466l2.649 2.377a47.557 47.557 0 0 1 -44.802-47.414 2.5 2.5 0 0 0 -5 0 52.559 52.559 0 0 0 48.953 52.367l-2 1.6a3 3 0 0 0 3.748 4.685l8.128-6.5a3 3 0 0 0 .13-4.575z" fill="#0089ef"/><g fill="#3a2c60"><path d="m94.81 55h-19.441l11.488-11.486a5.227 5.227 0 1 0 -7.392-7.393l-18.881 18.879h-31.394a5.228 5.228 0 0 0 0 10.455h1.967l3.627 26.835a5.259 5.259 0 0 0 5.194 4.539h44.044a5.259 5.259 0 0 0 5.194-4.539l3.627-26.834h1.967a5.228 5.228 0 0 0 0-10.456zm-13.931-17.465a3.228 3.228 0 1 1 4.564 4.565l-20.412 20.411a3.305 3.305 0 0 1 -4.564 0 3.231 3.231 0 0 1 0-4.564zm6.354 54.487a3.251 3.251 0 0 1 -3.211 2.807h-44.044a3.251 3.251 0 0 1 -3.211-2.807l-3.591-26.566h2.582a1 1 0 0 0 0-2h-6.568a3.228 3.228 0 0 1 0-6.455h29.48a5.2 5.2 0 0 0 0 6.455h-8.487a1 1 0 0 0 0 2h40.641zm7.577-28.566h-27.9l6.459-6.456h21.441a3.228 3.228 0 0 1 0 6.455z"/><path d="m47.464 64.456a1 1 0 0 0 -1-1h-7.078a1 1 0 0 0 0 2h7.078a1 1 0 0 0 1-1z"/><path d="m57.254 89.784a1 1 0 0 0 1-1v-17.104a1 1 0 0 0 -2 0v17.1a1 1 0 0 0 1 1.004z"/><path d="m45.863 70.684a1 1 0 0 0 -.915 1.079l1.413 17.1a1 1 0 0 0 1 .918.756.756 0 0 0 .083 0 1 1 0 0 0 .915-1.079l-1.417-17.102a1 1 0 0 0 -1.079-.916z"/><path d="m67.148 89.784a1 1 0 0 0 1-1v-17.104a1 1 0 0 0 -2 0v17.1a1 1 0 0 0 1 1.004z"/><path d="m76.962 89.78a.769.769 0 0 0 .083 0 1 1 0 0 0 1-.918l1.413-17.1a1 1 0 0 0 -1.998-.162l-1.413 17.1a1 1 0 0 0 .915 1.08z"/><circle cx="62.952" cy="60.026" r="1.767"/><path d="m51.814 51.894a14.889 14.889 0 1 0 -14.888-14.888 14.906 14.906 0 0 0 14.888 14.888zm0-27.777a12.889 12.889 0 1 1 -12.888 12.889 12.9 12.9 0 0 1 12.888-12.889z"/><path d="m115.5 62.006a53.782 53.782 0 0 0 -46.721-53.055l.177-.141a4 4 0 0 0 -5-6.247l-8.127 6.5a3.97 3.97 0 0 0 -1.429 2.537 51.065 51.065 0 0 0 -43.269 47.028 3.5 3.5 0 0 0 -2.631 3.378 53.632 53.632 0 0 0 47.389 53.138l-.059.046a4 4 0 1 0 5 6.246l8.128-6.5a3.978 3.978 0 0 0 1.449-2.641 51.074 51.074 0 0 0 42.47-46.91 3.5 3.5 0 0 0 2.623-3.379zm-47.794 51.366-8.128 6.5a2.045 2.045 0 0 1 -2.81-.312 2 2 0 0 1 .312-2.811l2-1.6a1 1 0 0 0 -.557-1.778 51.614 51.614 0 0 1 -48.023-51.365 1.5 1.5 0 0 1 3 0 48.508 48.508 0 0 0 45.751 48.417 1.016 1.016 0 0 0 .979-.614 1 1 0 0 0 -.255-1.128l-2.65-2.377a2 2 0 0 1 2.675-2.978l7.8 7a2 2 0 0 1 -.087 3.051zm2.451-3.064a3.986 3.986 0 0 0 -1.028-1.475l-7.8-7a4 4 0 0 0 -5.344 5.954l.417.374a46.51 46.51 0 0 1 -40.902-46.155 3.493 3.493 0 0 0 -2.372-3.3 49.063 49.063 0 0 1 41.472-45.116 3.986 3.986 0 0 0 1.059 1.576l7.8 7a4 4 0 0 0 5.341-5.958l-.253-.227a46.7 46.7 0 0 1 39.953 46.025 3.493 3.493 0 0 0 2.377 3.3 49.075 49.075 0 0 1 -40.72 45.002zm41.843-46.802a1.5 1.5 0 0 1 -1.5-1.5 48.678 48.678 0 0 0 -44.858-48.349q-.037 0-.075 0a1 1 0 0 0 -.667 1.743l2.562 2.3a2 2 0 0 1 .151 2.825 2.058 2.058 0 0 1 -2.823.153l-7.8-7a2 2 0 0 1 .087-3.05l8.128-6.5a2 2 0 1 1 2.5 3.123l-2.08 1.664a1 1 0 0 0 .545 1.777 51.751 51.751 0 0 1 47.33 51.314 1.5 1.5 0 0 1 -1.5 1.5z"/></g></svg>