<svg height="496pt" viewBox="0 0 496 496" width="496pt" xmlns="http://www.w3.org/2000/svg"><path d="m344 312h64v48h-64zm0 0" fill="#e6e9ed"/><path d="m306.289062 128.433594c-3.914062-13.671875-9.714843-26.546875-17.234374-38.234375l9.058593-18.359375-33.953125-33.953125-18.359375 9.058593c-14.242187-9.160156-30.152343-15.929687-47.25-19.625l-6.550781-19.320312h-48l-6.550781 19.320312c-17.097657 3.695313-33.007813 10.464844-47.25 19.625l-18.367188-9.058593-33.945312 33.945312 9.058593 18.359375c-9.167968 14.242188-15.929687 30.152344-19.625 47.25l-19.320312 6.558594v48l19.320312 6.550781c3.695313 17.097657 10.464844 33.007813 19.625 47.25l-9.058593 18.359375 33.945312 33.945313 18.359375-9.058594c14.242188 9.167969 30.160156 15.929687 47.25 19.625l6.558594 19.328125h48l6.550781-19.320312c17.097657-3.695313 33.007813-10.464844 47.25-19.625l18.359375 9.058593 19.183594-19.183593zm0 0" fill="#fcd770"/><path d="m279.550781 159.257812c-4.460937-57.753906-52.648437-103.257812-111.550781-103.257812-61.855469 0-112 50.144531-112 112s50.144531 112 112 112c41.121094 0 76.960938-22.222656 96.441406-55.257812zm0 0" fill="#69d6f4"/><g fill="#a0d468"><path d="m168 56c-14.007812 0-27.359375 2.6875-39.726562 7.382812l-.273438.617188 10.6875 26.71875c3.207031 8.023438 10.976562 13.28125 19.609375 13.28125h9.207031c9.695313 0 18.144532 6.59375 20.496094 16s10.800781 16 20.488281 16h2.457031c8 0 15.3125 4.519531 18.886719 11.679688l4.328125 8.640624c3.574219 7.160157 10.886719 11.679688 18.886719 11.679688h24.488281l2.015625-8.742188c-4.460937-57.753906-52.648437-103.257812-111.550781-103.257812zm0 0"/><path d="m168 240c8.832031 0 16-7.167969 16-16s-7.167969-16-16-16c-8.839844 0-16-7.167969-16-16v-12.921875c0-10.535156-8.542969-19.078125-19.078125-19.078125-7.808594 0-14.816406-4.753906-17.722656-11.992188-6.757813-16.910156-23.144531-28.007812-41.367188-28.007812h-6.910156c-6.929687 14.558594-10.921875 30.800781-10.921875 48 0 50.886719 33.960938 93.785156 80.441406 107.414062l-.441406-3.414062c0-17.671875 14.328125-32 32-32zm0 0"/><path d="m264.441406 224.742188 5.710938-24.742188h-19.726563c-11.503906 0-22.257812 5.753906-28.640625 15.328125-3.777344 5.65625-5.785156 12.296875-5.785156 19.097656v34.703125c20.214844-9.65625 37.113281-25.175781 48.441406-44.386718zm0 0"/></g><path d="m344 360v91.078125c0 20.394531 14.328125 36.921875 32 36.921875s32-16.527344 32-36.921875v-91.078125zm0 0" fill="#cf9e76"/><path d="m344 339.808594c10.238281 2.640625 20.929688 4.191406 32 4.191406s21.761719-1.550781 32-4.191406v-27.808594h-64zm0 0" fill="#ccd1d9"/><path d="m488 216c0 61.855469-50.144531 112-112 112s-112-50.144531-112-112 50.144531-112 112-112 112 50.144531 112 112zm0 0" fill="#e6e9ed"/><path d="m456 216c0 44.183594-35.816406 80-80 80s-80-35.816406-80-80 35.816406-80 80-80 80 35.816406 80 80zm0 0" fill="#69d6f4"/><path d="m344 360h64v16h-64zm0 0" fill="#b27946"/><path d="m496 216c0-66.167969-53.832031-120-120-120-24.175781 0-46.664062 7.246094-65.519531 19.59375-3.3125-9.042969-7.402344-17.707031-12.289063-25.839844l9.625-19.515625-42.054687-42.054687-19.503907 9.625c-13.027343-7.847656-26.96875-13.648438-41.554687-17.265625l-6.96875-20.542969h-59.46875l-6.96875 20.535156c-14.585937 3.617188-28.527344 9.417969-41.554687 17.265625l-19.511719-9.625-42.054688 42.054688 9.625 19.503906c-7.847656 13.027344-13.648437 26.96875-17.265625 41.554687l-20.535156 6.976563v59.46875l20.535156 6.96875c3.617188 14.585937 9.417969 28.527344 17.265625 41.554687l-9.625 19.503907 42.054688 42.054687 19.503906-9.625c13.027344 7.847656 26.96875 13.648438 41.554687 17.265625l6.976563 20.542969h59.46875l6.96875-20.535156c14.585937-3.617188 28.527344-9.417969 41.554687-17.265625l19.503907 9.625 16.75-16.753907c13.832031 17.1875 32.304687 30.417969 53.480469 37.9375v22.992188h-16v16h16v88c0 22.054688 17.945312 40 40 40 22.054687 0 40-17.945312 40-40v-88h16v-16h-16v-23c46.542968-16.527344 80.007812-60.871094 80.007812-113zm-233.441406 72.398438-17.277344-8.519532-3.808594 2.457032c-13.808594 8.878906-28.816406 15.121093-44.609375 18.527343l-4.429687.960938-6.167969 18.175781h-36.53125l-6.167969-18.175781-4.429687-.960938c-15.800781-3.414062-30.808594-9.648437-44.609375-18.527343l-3.808594-2.457032-17.277344 8.519532-25.839844-25.839844 8.519532-17.277344-2.457032-3.808594c-8.878906-13.808594-15.121093-28.816406-18.527343-44.609375l-.960938-4.429687-18.175781-6.167969v-36.53125l18.175781-6.167969.960938-4.429687c3.414062-15.800781 9.648437-30.808594 18.527343-44.609375l2.457032-3.808594-8.519532-17.277344 25.839844-25.839844 17.277344 8.519532 3.808594-2.457032c13.808594-8.878906 28.816406-15.121093 44.609375-18.527343l4.429687-.960938 6.167969-18.175781h36.53125l6.167969 18.175781 4.429687.960938c15.800781 3.414062 30.808594 9.648437 44.609375 18.527343l3.808594 2.457032 17.277344-8.519532 25.832031 25.832032-8.519531 17.277344 2.457031 3.808593c6.207031 9.640625 11.085937 20.183594 14.71875 31.335938-4.589844 4.023437-8.910156 8.335937-12.847656 13.007812-13.152344-52.261719-60.773438-90.863281-116.199219-90.863281-66.167969 0-120 53.832031-120 120s53.832031 120 120 120c35.496094 0 69.105469-16.089844 91.710938-42.921875 2.914062 11.640625 7.511718 22.59375 13.554687 32.609375zm-6.222656-65.804688c-8.296876 13.390625-19.414063 24.542969-32.335938 32.839844v-21.007813c0-5.234375 1.527344-10.304687 4.441406-14.65625 4.902344-7.371093 13.117188-11.769531 21.984375-11.769531h5.980469c-.175781 2.65625-.40625 5.296875-.40625 8 0 2.222656.214844 4.390625.335938 6.59375zm2.078124-30.59375h-8c-14.214843 0-27.414062 7.0625-35.292968 18.886719-4.65625 6.984375-7.121094 15.128906-7.121094 23.539062v29.453125c-12.519531 5.265625-26.097656 8.121094-40 8.121094-8.167969 0-16.078125-1.039062-23.710938-2.832031 1.421876-11.886719 11.445313-21.167969 23.710938-21.167969 13.230469 0 24-10.769531 24-24s-10.769531-24-24-24c-4.414062 0-8-3.585938-8-8v-12.921875c0-14.925781-12.152344-27.078125-27.078125-27.078125-4.5625 0-8.601563-2.734375-10.289063-6.960938-7.234374-18.0625-23.488281-30.277343-42.417968-32.558593 10.480468-16.511719 25.464844-29.832031 43.234375-38.3125l7.808593 19.519531c4.453126 11.128906 15.0625 18.3125 27.039063 18.3125h9.207031c6.03125 0 11.265625 4.089844 12.734375 9.9375 3.25 12.992188 14.867188 22.0625 28.257813 22.0625h2.457031c5 0 9.503906 2.785156 11.734375 7.265625l4.328125 8.628906c4.960937 9.9375 14.9375 16.105469 26.039063 16.105469h9.945312c-1.847656 5.199219-3.464844 10.503906-4.585938 16zm-186.390624-64h1.816406c15.03125 0 28.359375 9.023438 33.9375 22.976562 4.132812 10.34375 14.007812 17.023438 25.144531 17.023438 6.109375 0 11.078125 4.96875 11.078125 11.078125v12.921875c0 13.230469 10.769531 24 24 24 4.414062 0 8 3.585938 8 8s-3.585938 8-8 8c-19.40625 0-35.601562 13.902344-39.214844 32.265625-37.953125-15.523437-64.785156-52.800781-64.785156-96.265625 0-14.167969 2.871094-27.679688 8.023438-40zm66.335937-59.640625c9.410156-2.800781 19.335937-4.359375 29.640625-4.359375 53.136719 0 98.007812 40.921875 103.289062 93.558594-.457031.808594-.90625 1.617187-1.335937 2.441406h-16.898437c-5 0-9.503907-2.785156-11.734376-7.265625l-4.328124-8.628906c-4.96875-9.9375-14.945313-16.105469-26.046876-16.105469h-2.457031c-6.03125 0-11.265625-4.089844-12.734375-9.9375-3.242187-12.992188-14.859375-22.0625-28.25-22.0625h-9.207031c-5.394531 0-10.167969-3.238281-12.175781-8.246094zm133.640625 147.640625c0-57.34375 46.65625-104 104-104s104 46.65625 104 104-46.65625 104-104 104-104-46.65625-104-104zm128 240c0 13.230469-10.769531 24-24 24s-24-10.769531-24-24v-88h48zm0-104h-48v-18.414062c7.761719 1.574218 15.785156 2.414062 24 2.414062s16.238281-.839844 24-2.414062zm0 0"/><path d="m464 216c0-48.519531-39.480469-88-88-88s-88 39.480469-88 88 39.480469 88 88 88 88-39.480469 88-88zm-160 0c0-39.703125 32.296875-72 72-72s72 32.296875 72 72-32.296875 72-72 72-72-32.296875-72-72zm0 0"/></svg>